<?xml version="1.0" encoding="UTF-8"?><svg id="Layer_2" xmlns="http://www.w3.org/2000/svg" viewBox="0 0 175.42 164.42"><defs><style>.cls-1{fill:#fff;}</style></defs><g id="Layer_1-2"><path class="cls-1" d="M125.96,109.41c7.33.29,13.83,2.58,19.03,7.73,7.82,7.75,10.47,17.16,7.29,27.67-3.24,10.69-10.75,17.11-21.81,19.15-1.87.35-3.8.44-5.71.44-30.4.03-60.79.02-91.19.02-19.77,0-34.63-15.73-33.51-35.47.83-14.65,13.15-28.08,27.59-29.91,1.94-.25,2.81-.99,3.53-2.78,8.28-20.65,29.53-32.92,52.16-30.21,21.25,2.54,38.99,19.96,42.17,41.38.1.64.29,1.27.46,1.98ZM79.33,153.4c15.49,0,30.97.07,46.46-.03,6.59-.05,11.73-3,14.79-8.93,2.96-5.72,2.63-11.49-1.09-16.75-4-5.65-9.59-8.01-16.52-6.79-5.25.92-7.92-1.18-7.99-6.33-.02-1.33.03-2.68-.15-3.99-2.52-19.34-18.01-32.99-36.47-33.8-16.88-.74-33.12,9.9-38.37,27.5-1.31,4.4-2.41,5.18-7.14,5.27-13.15.26-23.1,11.71-21.43,24.66,1.44,11.14,10.49,19.13,21.94,19.18,15.32.07,30.64.02,45.96.02Z"/><path class="cls-1" d="M131.67,89.89c-1.81-3.16-3.63-6.33-5.54-9.67,3.38-4.21,5.37-9.06,5.33-14.7-.08-9.58-6.41-18.04-15.68-20.78-9.09-2.69-19.23.89-24.26,8.86-1.27,2.01-2.35,2.71-4.72,2.1-2.47-.63-5.09-.65-7.64-.93.76-6.92,10.23-18.24,23.12-21.15,15.3-3.45,30.87,4.33,37.41,18.8,6.29,13.94,1.44,29.87-8.01,37.47Z"/><path class="cls-1" d="M158.54,22.66c-1.06,1.91-1.6,3.43-2.6,4.55-2.27,2.53-4.74,4.89-7.19,7.26-2.64,2.55-5.9,2.61-8.19.26-2.31-2.37-2.13-5.48.5-8.13,2.52-2.54,5.02-5.09,7.6-7.56,1.73-1.66,3.98-2.2,5.93-.88,1.56,1.06,2.6,2.9,3.96,4.5Z"/><path class="cls-1" d="M164.27,71.17c-1.91,0-3.83.1-5.73-.02-2.93-.2-4.98-2.33-5.11-5.12-.14-2.79,1.68-5.42,4.55-5.61,4.29-.29,8.63-.28,12.92,0,2.81.18,4.68,2.89,4.51,5.64-.17,2.78-2.26,4.93-5.16,5.1-1.99.12-3.99.02-5.98.02,0,0,0-.01,0-.02Z"/><path class="cls-1" d="M115.06,11.01c0,1.91.06,3.82-.02,5.73-.11,2.73-2.09,4.84-4.78,5.21-2.55.36-5.56-1.31-5.77-3.98-.37-4.68-.38-9.43.02-14.11.23-2.7,3.04-4.14,5.84-3.82,2.57.29,4.49,2.33,4.69,4.98.01.17.02.33.02.5,0,1.83,0,3.65,0,5.48Z"/><path class="cls-1" d="M80.34,30.33c-.18,2.85-1.22,4.61-3.27,5.55-2.15.99-4.26.7-6-.99-2.69-2.61-5.35-5.25-7.94-7.95-2.12-2.21-2.12-5.2-.13-7.44,1.91-2.15,5.21-2.62,7.41-.65,3.04,2.71,5.89,5.65,8.66,8.63.78.84,1.01,2.2,1.28,2.84Z"/><path class="cls-1" d="M155.61,112.5c-4.29-4.99-9.45-8.78-15.57-11.28-.5-.2-.98-1.45-.84-2.07.9-3.83,5.68-5.47,8.7-2.83,3.06,2.67,5.92,5.6,8.63,8.63,2.09,2.35,1.62,5.09-.92,7.54Z"/></g></svg>