<?xml version="1.0" encoding="UTF-8"?><svg id="Layer_2" xmlns="http://www.w3.org/2000/svg" viewBox="0 0 175.36 164.58"><defs><style>.cls-1{fill:#fff;}</style></defs><g id="Layer_1-2"><path class="cls-1" d="M90.17,109.58c-17.98,0-35.97.24-53.95-.07-17.18-.3-32.66-14.04-35.59-30.92-3.86-22.27,10.61-42.28,32.92-45.39,2.45-.34,5,0,7.47-.23.84-.08,2-.75,2.35-1.47C53.46,10.77,74.26-1.42,97.1.13c23.22,1.58,43.33,18.41,48.98,41.13.52,2.11,1.39,2.99,3.63,3.48,15.17,3.3,26.37,17.82,25.61,32.86-.84,16.62-12.67,29.76-28.72,31.83-1.81.23-3.66.19-5.49.19-16.98.01-33.97,0-50.95,0v-.06ZM90.06,98.56c17.65,0,35.3.05,52.95-.02,13.39-.05,23.68-13.14,20.74-26.22-2.3-10.23-10.32-16.87-20.96-17.35-3.94-.18-5.78-1.84-6.29-5.67-.11-.82-.3-1.63-.44-2.45-4.57-26.36-33.05-42.63-58.01-33.12-12.88,4.91-21.65,13.89-26.39,26.83-1.29,3.53-3.42,4.57-7.12,4.13-3.44-.4-7.03-.88-10.4-.35-14.88,2.32-24.34,15-22.99,30.32,1.16,13.3,13.33,23.89,27.47,23.89,17.15,0,34.3,0,51.46,0Z"/><path class="cls-1" d="M82.08,126.67c-.08.33-.23,1.14-.49,1.92-3.48,10.46-6.99,20.91-10.45,31.37-.71,2.15-1.96,3.62-4.22,4.12-4.04.89-7.74-2.71-6.48-6.64,3.56-11.13,7.3-22.21,11.06-33.27.89-2.63,3.67-4.07,6.14-3.54,2.69.58,4.48,2.81,4.44,6.05Z"/><path class="cls-1" d="M131.37,164.58c-4.02.03-6.44-3.52-5.1-7.69,2.11-6.55,4.34-13.07,6.52-19.6,1.37-4.09,2.71-8.19,4.12-12.27,1.24-3.6,4.02-5.22,7.02-4.21,3.3,1.11,4.66,3.98,3.46,7.6-3.55,10.7-7.13,21.39-10.73,32.07-.95,2.8-2.66,4.06-5.28,4.08Z"/><path class="cls-1" d="M98.58,141.64c.08-.28.23-.92.43-1.54,1.67-5.03,3.32-10.07,5.02-15.08,1.21-3.54,4-5.19,7.02-4.23,3.2,1.02,4.62,4.07,3.46,7.62-1.7,5.2-3.4,10.4-5.2,15.57-.97,2.8-3.62,4.31-6.23,3.75-2.84-.61-4.68-2.93-4.51-6.08Z"/><path class="cls-1" d="M49.18,126.66c-.09.36-.24,1.18-.5,1.96-1.64,4.97-3.28,9.93-4.96,14.89-1.18,3.49-4.01,5.07-7.13,4.03-2.95-.98-4.44-4.01-3.39-7.29,1.7-5.3,3.48-10.57,5.32-15.83.99-2.82,3.64-4.34,6.24-3.79,2.66.56,4.46,2.82,4.42,6.03Z"/></g></svg>