<?xml version="1.0" encoding="UTF-8"?><svg id="Layer_2" xmlns="http://www.w3.org/2000/svg" viewBox="0 0 158.45 157.1"><defs><style>.cls-1{fill:#fff;}</style></defs><g id="Layer_1-2"><path class="cls-1" d="M79.2,36.55c23.51-.01,42.32,18.62,42.33,41.93,0,23.27-18.88,42.11-42.23,42.12-23.44.02-42.43-18.72-42.47-41.9-.04-23.47,18.74-42.15,42.37-42.16ZM79.37,47.57c-17.08-.14-31.25,13.51-31.38,30.23-.13,17.6,13.53,31.65,30.9,31.77,17.11.12,31.44-13.69,31.56-30.42.13-17.55-13.54-31.44-31.09-31.58Z"/><path class="cls-1" d="M130.71,135.64c-2.85,0-10.24-7.2-10.21-10.55.02-2.13.97-3.86,2.9-4.88,1.99-1.05,4.11-1.13,5.83.36,2.31,2,4.54,4.14,6.54,6.44,1.47,1.69,1.51,3.82.38,5.82-1.07,1.89-2.72,2.84-5.44,2.8Z"/><path class="cls-1" d="M32.69,118.96c1.49,1.13,3.27,2.04,4.4,3.46,1.4,1.77,1.18,4.06-.29,5.76-2,2.31-4.19,4.49-6.53,6.45-2.05,1.71-4.91,1.39-6.83-.33-2-1.79-2.76-4.72-1.13-6.71,2.18-2.67,4.81-4.99,7.36-7.34.6-.55,1.68-.58,2.53-.84.17-.15.33-.29.5-.44Z"/><path class="cls-1" d="M9.29,84.07c-1.41,0-2.83.11-4.23-.03C1.97,83.74-.09,81.34,0,78.32c.09-2.98,2.34-5.16,5.5-5.23,2.49-.05,4.98-.06,7.47,0,3.1.08,5.41,2.34,5.52,5.3.1,2.84-2.19,5.39-5.22,5.66-1.32.12-2.65.02-3.98.02Z"/><path class="cls-1" d="M149.27,73.08c1.16,0,2.33-.02,3.49,0,3.12.07,5.47,2.19,5.67,5.11.2,2.88-1.94,5.56-4.99,5.81-2.81.23-5.65.22-8.46.02-3.06-.22-5.18-2.83-5.04-5.76.14-2.95,2.44-5.1,5.59-5.18,1.25-.03,2.49,0,3.74,0Z"/><path class="cls-1" d="M27.26,21.28c.32.07.67.08.96.22,4.24,2.02,7.49,5.14,9.39,9.39.98,2.2-.24,4.24-2.13,5.61-2.01,1.46-4.33,1.63-6.23.05-2.41-2-4.63-4.27-6.71-6.62-1.44-1.63-1.62-3.87-.31-5.54,1.17-1.49,3.02-2.45,4.57-3.65.15.18.3.36.45.55Z"/><path class="cls-1" d="M136.89,25.68c.04,4.45-7.62,12.03-10.92,11.89-2.23-.1-3.96-1.18-4.94-3.23-1-2.08-.73-4.1.81-5.78,1.84-2.02,3.77-3.97,5.81-5.8,1.74-1.56,4-2.12,5.95-.77,1.55,1.08,2.61,2.88,3.3,3.69Z"/><path class="cls-1" d="M84.68,148.03c0,1.25.06,2.5-.01,3.74-.18,3.07-2.3,5.2-5.2,5.32-2.99.12-5.57-1.95-5.8-5-.2-2.73-.21-5.5,0-8.23.22-3.06,2.87-5.27,5.73-5.12,2.99.16,5.15,2.39,5.29,5.53.06,1.25,0,2.5,0,3.74h0Z"/><path class="cls-1" d="M84.68,9.34c0,1.16.05,2.33-.01,3.49-.17,3.23-2.3,5.36-5.33,5.39-3.21.04-5.56-2.06-5.72-5.33-.13-2.57-.14-5.16.01-7.73C73.82,2.1,76.28-.04,79.27,0c3.1.05,5.25,2.15,5.4,5.34.06,1.33.01,2.66,0,3.99Z"/></g></svg>